<svg width="100" height="100" viewBox="0 0 100 100" fill="none" xmlns="http://www.w3.org/2000/svg">
  <!-- Existing P (Blue #3F51B5) -->
  <path d="M20 80V20H50C58.2826 20 66.2348 23.1607 72.1249 28.7188C78.0149 34.2768 81.4286 41.6667 81.4286 49.375C81.4286 57.0833 78.0149 64.4732 72.1249 70.0312C66.2348 75.5893 58.2826 78.75 50 78.75H35" stroke="#3F51B5" stroke-width="10" stroke-linecap="round" stroke-linejoin="round"/>
  <path d="M50 50H20" stroke="#3F51B5" stroke-width="10" stroke-linecap="round" stroke-linejoin="round"/>

  <!-- Existing F (Orange #FF9800) -->
  <path d="M55 20V80" stroke="#FF9800" stroke-width="10" stroke-linecap="round" stroke-linejoin="round"/>
  <path d="M55 50H85" stroke="#FF9800" stroke-width="10" stroke-linecap="round" stroke-linejoin="round"/>

  <!-- Clock Element: Semicircular arc on the left, and hands (Muted Color #9AA2B0) -->
  <path d="M50 5 A 45 45 0 0 0 5 50 A 45 45 0 0 0 50 95" stroke="#9AA2B0" stroke-width="4" fill="none" stroke-linecap="round"/>
  <line x1="50" y1="50" x2="50" y2="18" stroke="#9AA2B0" stroke-width="4" stroke-linecap="round"/> <!-- Minute hand (up) -->
  <line x1="50" y1="50" x2="30" y2="50" stroke="#9AA2B0" stroke-width="4" stroke-linecap="round"/> <!-- Hour hand (left, 9 o'clock) -->

  <!-- Speed Lines (Orange #FF9800, to the right of F) -->
  <line x1="88" y1="35" x2="98" y2="35" stroke="#FF9800" stroke-width="5" stroke-linecap="round"/>
  <line x1="88" y1="50" x2="102" y2="50" stroke="#FF9800" stroke-width="5" stroke-linecap="round"/>
  <line x1="88" y1="65" x2="98" y2="65" stroke="#FF9800" stroke-width="5" stroke-linecap="round"/>
</svg>
